#!OML:ASF H:\LiuWeirdWalks\Patient Classification 1\Patient 1\Session 1\male.ASF
:FULLY-SPECIFIED
:DEGREES
753
root 1.14838 17.8918 40.3293 1.26703 -3.92602 -0.650644
lowerback -0.696426 -1.14198 -0.0106139
upperback -1.7945 -1.48399 3.89848
thorax -1.34789 -0.715823 4.0246
lowerneck -12.0222 -15.3991 -11.9145
upperneck 18.1359 -21.8318 12.1807
head 10.4574 -9.87602 2.9165
rclavicle -1.43125e-014 -4.77083e-015
rhumerus -20.1622 2.03071 -78.1638
rradius 28.3571
rwrist -8.12911
rhand -15.7315 -1.17854
rfingers 7.12502
rthumb 10.4592 -30.8984
lclavicle -1.43125e-014 -4.77083e-015
lhumerus -36.8199 13.432 86.3474
lradius 19.6393
lwrist -4.65725
lhand -10.0514 -1.30728
lfingers 7.12502
lthumb 15.9342 28.0573
rfemur -17.5262 -3.0978 23.3932
rtibia 32.2397
rfoot -5.61689 -14.1836
rtoes -4.64284
lfemur -11.8711 -5.25914 -10.2704
ltibia 52.1813
lfoot 12.2294 -15.5754
ltoes -26.238
754
root 1.16326 17.8926 40.3299 1.72247 -4.43344 -0.622491
lowerback -1.25 -0.9845 0.29106
upperback -1.91059 -1.28395 3.78034
thorax -1.1794 -0.620795 3.72127
lowerneck -12.0327 -15.5344 -12.0629
upperneck 18.1774 -22.0426 12.326
head 10.5396 -9.96419 2.93973
rclavicle 1.49089e-016 5.56597e-015
rhumerus -20.1263 1.69176 -78.127
rradius 28.6704
rwrist -8.33694
rhand -15.7416 -1.21104
rfingers 7.12502
rthumb 10.4494 -30.9314
lclavicle 1.49089e-016 5.56597e-015
lhumerus -36.6648 12.5781 86.7226
lradius 19.693
lwrist -4.63559
lhand -10.1212 -1.32607
lfingers 7.12502
lthumb 15.8669 28.0438
rfemur -18.108 -3.0409 23.3528
rtibia 32.3113
rfoot -5.64624 -13.696
rtoes -4.68476
lfemur -12.2588 -5.29181 -10.3062
ltibia 52.0724
lfoot 12.1996 -15.9479
ltoes -26.561
755
root 1.17854 17.8957 40.3299 2.3198 -4.93951 -0.599922
lowerback -1.96467 -0.833831 0.584849
upperback -2.06371 -1.09929 3.66696
thorax -0.954907 -0.533237 3.4284
lowerneck -12.0762 -15.6581 -12.1854
upperneck 18.2482 -22.2393 12.452
head 10.6316 -10.0432 2.95275
rclavicle 2.70844e-014 -5.56597e-015
rhumerus -20.1 1.35593 -78.1045
rradius 28.9862
rwrist -8.54902
rhand -15.7656 -1.2409
rfingers 7.12502
rthumb 10.4262 -30.9624
lclavicle 2.70844e-014 -5.56597e-015
lhumerus -36.496 11.7518 87.0729
lradius 19.7255
lwrist -4.6063
lhand -10.201 -1.35233
lfingers 7.12502
lthumb 15.7901 28.0237
rfemur -18.8477 -2.98124 23.3224
rtibia 32.3717
rfoot -5.65781 -13.1951
rtoes -4.70831
lfemur -12.803 -5.31452 -10.3314
ltibia 51.965
lfoot 12.1644 -16.2762
ltoes -26.8659
756
root 1.19493 17.8936 40.3237 2.34984 -5.4668 -0.619037
lowerback -1.98634 -0.79817 0.735176
upperback -2.09495 -1.05323 3.6617
thorax -0.980164 -0.51187 3.3388
lowerneck -12.1586 -15.6545 -12.1767
upperneck 18.3535 -22.24 12.4238
head 10.6802 -10.0377 2.93438
rclavicle -3.97569e-016 -4.77083e-015
rhumerus -20.0235 1.37877 -78.1531
rradius 29.2923
rwrist -8.7641
rhand -15.7961 -1.2764
rfingers 7.12502
rthumb 10.3969 -30.9994
lclavicle -3.97569e-016 -4.77083e-015
lhumerus -36.406 11.3137 87.3162
lradius 19.7862
lwrist -4.60883
lhand -10.264 -1.35889
lfingers 7.12502
lthumb 15.7294 28.0219
rfemur -18.9481 -2.89452 23.3043
rtibia 32.4101
rfoot -5.71501 -12.7351
rtoes -4.72456
lfemur -12.6926 -5.40078 -10.3694
ltibia 51.8272
lfoot 12.0678 -16.5715
ltoes -27.1521
757
root 1.21199 17.8914 40.3158 2.38226 -5.99378 -0.658204
lowerback -2.00613 -0.877458 0.73036
upperback -2.1389 -1.15812 3.75984
thorax -1.00681 -0.563568 3.44217
lowerneck -12.2198 -15.5321 -12.0939
upperneck 18.4656 -22.0615 12.2955
head 10.6805 -9.95815 2.91136
rclavicle -1.92821e-014 1.43125e-014
rhumerus -19.9096 1.74875 -78.2703
rradius 29.5869
rwrist -9.00958
rhand -15.8497 -1.3126
rfingers 7.12502
rthumb 10.3452 -31.0381
lclavicle -1.92821e-014 1.43125e-014
lhumerus -36.3823 11.2464 87.4526
lradius 19.8626
lwrist -4.66527
lhand -10.2786 -1.34811
lfingers 7.12502
lthumb 15.7153 28.0338
rfemur -19.0438 -2.79788 23.3057
rtibia 32.4185
rfoot -5.74847 -12.2782
rtoes -4.73163
lfemur -12.5741 -5.4975 -10.3946
ltibia 51.6757
lfoot 11.9674 -16.8262
ltoes -27.4495
758
root 1.22994 17.889 40.3061 2.41779 -6.52467 -0.712328
lowerback -2.0262 -1.0479 0.601233
upperback -2.19085 -1.38287 3.93927
thorax -1.02971 -0.673247 3.6987
lowerneck -12.2888 -15.3157 -11.9199
upperneck 18.5929 -21.7407 12.0649
head 10.6447 -9.81824 2.87022
rclavicle 1.94312e-014 -6.36111e-015
rhumerus -19.7703 2.39543 -78.4424
rradius 29.8706
rwrist -9.27125
rhand -15.9243 -1.3348
rfingers 7.12502
rthumb 10.2732 -31.0639
lclavicle 1.94312e-014 -6.36111e-015
lhumerus -36.4066 11.4666 87.5051
lradius 19.9553
lwrist -4.76127
lhand -10.2439 -1.32076
lfingers 7.12502
lthumb 15.7488 28.0585
rfemur -19.1388 -2.69941 23.3215
rtibia 32.402
rfoot -5.75845 -11.8112
rtoes -4.73072
lfemur -12.4499 -5.59905 -10.4126
ltibia 51.513
lfoot 11.8565 -17.0289
ltoes -27.7646
759
root 1.24872 17.8864 40.2946 2.4564 -7.06208 -0.777345
lowerback -2.05435 -1.20912 0.498963
upperback -2.2365 -1.59621 4.11106
thorax -1.04091 -0.777712 3.93224
lowerneck -12.3594 -15.1099 -11.749
upperneck 18.7162 -21.4378 11.848
head 10.6137 -9.68526 2.82948
rclavicle -2.73329e-014 3.18055e-015
rhumerus -19.6461 2.99201 -78.6133
rradius 30.1533
rwrist -9.5413
rhand -16.0169 -1.34319
rfingers 7.12502
rthumb 10.1839 -31.0767
lclavicle -2.73329e-014 3.18055e-015
lhumerus -36.3907 11.6595 87.5516
lradius 20.0221
lwrist -4.87945
lhand -10.1835 -1.30798
lfingers 7.12502
lthumb 15.8069 28.0667
rfemur -19.2419 -2.5952 23.3477
rtibia 32.3799
rfoot -5.75528 -11.3399
rtoes -4.72294
lfemur -12.3295 -5.70156 -10.4263
ltibia 51.3634
lfoot 11.7308 -17.1806
ltoes -28.0348
760
root 1.26833 17.8838 40.2812 2.4985 -7.61162 -0.850588
lowerback -2.09818 -1.19574 0.675015
upperback -2.25675 -1.58124 4.12845
thorax -1.04235 -0.772474 3.8504
lowerneck -12.3892 -15.0808 -11.7513
upperneck 18.789 -21.41 11.859
head 10.6439 -9.66827 2.83566
rclavicle 2.78299e-015 -7.95139e-015
rhumerus -19.606 3.01722 -78.6933
rradius 30.4426
rwrist -9.73868
rhand -16.109 -1.30585
rfingers 7.12502
rthumb 10.095 -31.0437
lclavicle 2.78299e-015 -7.95139e-015
lhumerus -36.2151 11.3229 87.7094
lradius 20.0275
lwrist -4.98951
lhand -10.1115 -1.32479
lfingers 7.12502
lthumb 15.8763 28.0444
rfemur -19.357 -2.48773 23.3829
rtibia 32.3555
rfoot -5.73634 -10.8588
rtoes -4.70242
lfemur -12.214 -5.78667 -10.4368
ltibia 51.2309
lfoot 11.5532 -17.3411
ltoes -28.2832
761
root 1.28883 17.8817 40.266 2.54157 -8.17385 -0.929456
lowerback -2.11362 -1.03271 1.0929
upperback -2.27254 -1.36894 4.01012
thorax -1.07537 -0.672221 3.49458
lowerneck -12.449 -15.2086 -11.855
upperneck 18.8722 -21.624 12.0116
head 10.7459 -9.75021 2.85157
rclavicle 2.72832e-014 4.13472e-014
rhumerus -19.6604 2.56752 -78.7028
rradius 30.7486
rwrist -9.91416
rhand -16.189 -1.26253
rfingers 7.12502
rthumb 10.0178 -31.0041
lclavicle 2.72832e-014 4.13472e-014
lhumerus -35.9225 10.5096 87.9642
lradius 19.9829
lwrist -5.02168
lhand -10.0221 -1.342
lfingers 7.12502
lthumb 15.9624 28.0203
rfemur -19.4795 -2.36924 23.4232
rtibia 32.3285
rfoot -5.70794 -10.3746
rtoes -4.65801
lfemur -12.1038 -5.85493 -10.4494
ltibia 51.1173
lfoot 11.3034 -17.5304
ltoes -28.4065
